%TF.GenerationSoftware,KiCad,Pcbnew,9.0.7-9.0.7~ubuntu24.04.1*%
%TF.CreationDate,2026-03-22T17:32:45+01:00*%
%TF.ProjectId,DIYTC2050PCB,44495954-4332-4303-9530-5043422e6b69,rev?*%
%TF.SameCoordinates,Original*%
%TF.FileFunction,Legend,Top*%
%TF.FilePolarity,Positive*%
%FSLAX46Y46*%
G04 Gerber Fmt 4.6, Leading zero omitted, Abs format (unit mm)*
G04 Created by KiCad (PCBNEW 9.0.7-9.0.7~ubuntu24.04.1) date 2026-03-22 17:32:45*
%MOMM*%
%LPD*%
G01*
G04 APERTURE LIST*
%ADD10C,0.150000*%
%ADD11C,0.100000*%
G04 APERTURE END LIST*
D10*
X141693922Y-95643819D02*
X142027255Y-96643819D01*
X142027255Y-96643819D02*
X142360588Y-95643819D01*
X143265350Y-96548580D02*
X143217731Y-96596200D01*
X143217731Y-96596200D02*
X143074874Y-96643819D01*
X143074874Y-96643819D02*
X142979636Y-96643819D01*
X142979636Y-96643819D02*
X142836779Y-96596200D01*
X142836779Y-96596200D02*
X142741541Y-96500961D01*
X142741541Y-96500961D02*
X142693922Y-96405723D01*
X142693922Y-96405723D02*
X142646303Y-96215247D01*
X142646303Y-96215247D02*
X142646303Y-96072390D01*
X142646303Y-96072390D02*
X142693922Y-95881914D01*
X142693922Y-95881914D02*
X142741541Y-95786676D01*
X142741541Y-95786676D02*
X142836779Y-95691438D01*
X142836779Y-95691438D02*
X142979636Y-95643819D01*
X142979636Y-95643819D02*
X143074874Y-95643819D01*
X143074874Y-95643819D02*
X143217731Y-95691438D01*
X143217731Y-95691438D02*
X143265350Y-95739057D01*
X144265350Y-96548580D02*
X144217731Y-96596200D01*
X144217731Y-96596200D02*
X144074874Y-96643819D01*
X144074874Y-96643819D02*
X143979636Y-96643819D01*
X143979636Y-96643819D02*
X143836779Y-96596200D01*
X143836779Y-96596200D02*
X143741541Y-96500961D01*
X143741541Y-96500961D02*
X143693922Y-96405723D01*
X143693922Y-96405723D02*
X143646303Y-96215247D01*
X143646303Y-96215247D02*
X143646303Y-96072390D01*
X143646303Y-96072390D02*
X143693922Y-95881914D01*
X143693922Y-95881914D02*
X143741541Y-95786676D01*
X143741541Y-95786676D02*
X143836779Y-95691438D01*
X143836779Y-95691438D02*
X143979636Y-95643819D01*
X143979636Y-95643819D02*
X144074874Y-95643819D01*
X144074874Y-95643819D02*
X144217731Y-95691438D01*
X144217731Y-95691438D02*
X144265350Y-95739057D01*
D11*
X142303884Y-88705752D02*
X142303884Y-89372419D01*
X142303884Y-88800990D02*
X142351503Y-88753371D01*
X142351503Y-88753371D02*
X142446741Y-88705752D01*
X142446741Y-88705752D02*
X142589598Y-88705752D01*
X142589598Y-88705752D02*
X142684836Y-88753371D01*
X142684836Y-88753371D02*
X142732455Y-88848609D01*
X142732455Y-88848609D02*
X142732455Y-89372419D01*
X143780074Y-89372419D02*
X143446741Y-88896228D01*
X143208646Y-89372419D02*
X143208646Y-88372419D01*
X143208646Y-88372419D02*
X143589598Y-88372419D01*
X143589598Y-88372419D02*
X143684836Y-88420038D01*
X143684836Y-88420038D02*
X143732455Y-88467657D01*
X143732455Y-88467657D02*
X143780074Y-88562895D01*
X143780074Y-88562895D02*
X143780074Y-88705752D01*
X143780074Y-88705752D02*
X143732455Y-88800990D01*
X143732455Y-88800990D02*
X143684836Y-88848609D01*
X143684836Y-88848609D02*
X143589598Y-88896228D01*
X143589598Y-88896228D02*
X143208646Y-88896228D01*
X144161027Y-89324800D02*
X144303884Y-89372419D01*
X144303884Y-89372419D02*
X144541979Y-89372419D01*
X144541979Y-89372419D02*
X144637217Y-89324800D01*
X144637217Y-89324800D02*
X144684836Y-89277180D01*
X144684836Y-89277180D02*
X144732455Y-89181942D01*
X144732455Y-89181942D02*
X144732455Y-89086704D01*
X144732455Y-89086704D02*
X144684836Y-88991466D01*
X144684836Y-88991466D02*
X144637217Y-88943847D01*
X144637217Y-88943847D02*
X144541979Y-88896228D01*
X144541979Y-88896228D02*
X144351503Y-88848609D01*
X144351503Y-88848609D02*
X144256265Y-88800990D01*
X144256265Y-88800990D02*
X144208646Y-88753371D01*
X144208646Y-88753371D02*
X144161027Y-88658133D01*
X144161027Y-88658133D02*
X144161027Y-88562895D01*
X144161027Y-88562895D02*
X144208646Y-88467657D01*
X144208646Y-88467657D02*
X144256265Y-88420038D01*
X144256265Y-88420038D02*
X144351503Y-88372419D01*
X144351503Y-88372419D02*
X144589598Y-88372419D01*
X144589598Y-88372419D02*
X144732455Y-88420038D01*
X145018170Y-88372419D02*
X145589598Y-88372419D01*
X145303884Y-89372419D02*
X145303884Y-88372419D01*
D10*
X143799160Y-102692200D02*
X143942017Y-102739819D01*
X143942017Y-102739819D02*
X144180112Y-102739819D01*
X144180112Y-102739819D02*
X144275350Y-102692200D01*
X144275350Y-102692200D02*
X144322969Y-102644580D01*
X144322969Y-102644580D02*
X144370588Y-102549342D01*
X144370588Y-102549342D02*
X144370588Y-102454104D01*
X144370588Y-102454104D02*
X144322969Y-102358866D01*
X144322969Y-102358866D02*
X144275350Y-102311247D01*
X144275350Y-102311247D02*
X144180112Y-102263628D01*
X144180112Y-102263628D02*
X143989636Y-102216009D01*
X143989636Y-102216009D02*
X143894398Y-102168390D01*
X143894398Y-102168390D02*
X143846779Y-102120771D01*
X143846779Y-102120771D02*
X143799160Y-102025533D01*
X143799160Y-102025533D02*
X143799160Y-101930295D01*
X143799160Y-101930295D02*
X143846779Y-101835057D01*
X143846779Y-101835057D02*
X143894398Y-101787438D01*
X143894398Y-101787438D02*
X143989636Y-101739819D01*
X143989636Y-101739819D02*
X144227731Y-101739819D01*
X144227731Y-101739819D02*
X144370588Y-101787438D01*
X144703922Y-101739819D02*
X144942017Y-102739819D01*
X144942017Y-102739819D02*
X145132493Y-102025533D01*
X145132493Y-102025533D02*
X145322969Y-102739819D01*
X145322969Y-102739819D02*
X145561065Y-101739819D01*
X145942017Y-102739819D02*
X145942017Y-101739819D01*
X145942017Y-101739819D02*
X146180112Y-101739819D01*
X146180112Y-101739819D02*
X146322969Y-101787438D01*
X146322969Y-101787438D02*
X146418207Y-101882676D01*
X146418207Y-101882676D02*
X146465826Y-101977914D01*
X146465826Y-101977914D02*
X146513445Y-102168390D01*
X146513445Y-102168390D02*
X146513445Y-102311247D01*
X146513445Y-102311247D02*
X146465826Y-102501723D01*
X146465826Y-102501723D02*
X146418207Y-102596961D01*
X146418207Y-102596961D02*
X146322969Y-102692200D01*
X146322969Y-102692200D02*
X146180112Y-102739819D01*
X146180112Y-102739819D02*
X145942017Y-102739819D01*
X146942017Y-102739819D02*
X146942017Y-101739819D01*
X147608683Y-101739819D02*
X147799159Y-101739819D01*
X147799159Y-101739819D02*
X147894397Y-101787438D01*
X147894397Y-101787438D02*
X147989635Y-101882676D01*
X147989635Y-101882676D02*
X148037254Y-102073152D01*
X148037254Y-102073152D02*
X148037254Y-102406485D01*
X148037254Y-102406485D02*
X147989635Y-102596961D01*
X147989635Y-102596961D02*
X147894397Y-102692200D01*
X147894397Y-102692200D02*
X147799159Y-102739819D01*
X147799159Y-102739819D02*
X147608683Y-102739819D01*
X147608683Y-102739819D02*
X147513445Y-102692200D01*
X147513445Y-102692200D02*
X147418207Y-102596961D01*
X147418207Y-102596961D02*
X147370588Y-102406485D01*
X147370588Y-102406485D02*
X147370588Y-102073152D01*
X147370588Y-102073152D02*
X147418207Y-101882676D01*
X147418207Y-101882676D02*
X147513445Y-101787438D01*
X147513445Y-101787438D02*
X147608683Y-101739819D01*
X148688588Y-97215438D02*
X148593350Y-97167819D01*
X148593350Y-97167819D02*
X148450493Y-97167819D01*
X148450493Y-97167819D02*
X148307636Y-97215438D01*
X148307636Y-97215438D02*
X148212398Y-97310676D01*
X148212398Y-97310676D02*
X148164779Y-97405914D01*
X148164779Y-97405914D02*
X148117160Y-97596390D01*
X148117160Y-97596390D02*
X148117160Y-97739247D01*
X148117160Y-97739247D02*
X148164779Y-97929723D01*
X148164779Y-97929723D02*
X148212398Y-98024961D01*
X148212398Y-98024961D02*
X148307636Y-98120200D01*
X148307636Y-98120200D02*
X148450493Y-98167819D01*
X148450493Y-98167819D02*
X148545731Y-98167819D01*
X148545731Y-98167819D02*
X148688588Y-98120200D01*
X148688588Y-98120200D02*
X148736207Y-98072580D01*
X148736207Y-98072580D02*
X148736207Y-97739247D01*
X148736207Y-97739247D02*
X148545731Y-97739247D01*
X149164779Y-98167819D02*
X149164779Y-97167819D01*
X149164779Y-97167819D02*
X149736207Y-98167819D01*
X149736207Y-98167819D02*
X149736207Y-97167819D01*
X150212398Y-98167819D02*
X150212398Y-97167819D01*
X150212398Y-97167819D02*
X150450493Y-97167819D01*
X150450493Y-97167819D02*
X150593350Y-97215438D01*
X150593350Y-97215438D02*
X150688588Y-97310676D01*
X150688588Y-97310676D02*
X150736207Y-97405914D01*
X150736207Y-97405914D02*
X150783826Y-97596390D01*
X150783826Y-97596390D02*
X150783826Y-97739247D01*
X150783826Y-97739247D02*
X150736207Y-97929723D01*
X150736207Y-97929723D02*
X150688588Y-98024961D01*
X150688588Y-98024961D02*
X150593350Y-98120200D01*
X150593350Y-98120200D02*
X150450493Y-98167819D01*
X150450493Y-98167819D02*
X150212398Y-98167819D01*
X150657160Y-102692200D02*
X150800017Y-102739819D01*
X150800017Y-102739819D02*
X151038112Y-102739819D01*
X151038112Y-102739819D02*
X151133350Y-102692200D01*
X151133350Y-102692200D02*
X151180969Y-102644580D01*
X151180969Y-102644580D02*
X151228588Y-102549342D01*
X151228588Y-102549342D02*
X151228588Y-102454104D01*
X151228588Y-102454104D02*
X151180969Y-102358866D01*
X151180969Y-102358866D02*
X151133350Y-102311247D01*
X151133350Y-102311247D02*
X151038112Y-102263628D01*
X151038112Y-102263628D02*
X150847636Y-102216009D01*
X150847636Y-102216009D02*
X150752398Y-102168390D01*
X150752398Y-102168390D02*
X150704779Y-102120771D01*
X150704779Y-102120771D02*
X150657160Y-102025533D01*
X150657160Y-102025533D02*
X150657160Y-101930295D01*
X150657160Y-101930295D02*
X150704779Y-101835057D01*
X150704779Y-101835057D02*
X150752398Y-101787438D01*
X150752398Y-101787438D02*
X150847636Y-101739819D01*
X150847636Y-101739819D02*
X151085731Y-101739819D01*
X151085731Y-101739819D02*
X151228588Y-101787438D01*
X151561922Y-101739819D02*
X151800017Y-102739819D01*
X151800017Y-102739819D02*
X151990493Y-102025533D01*
X151990493Y-102025533D02*
X152180969Y-102739819D01*
X152180969Y-102739819D02*
X152419065Y-101739819D01*
X152800017Y-102739819D02*
X152800017Y-101739819D01*
X152800017Y-101739819D02*
X153038112Y-101739819D01*
X153038112Y-101739819D02*
X153180969Y-101787438D01*
X153180969Y-101787438D02*
X153276207Y-101882676D01*
X153276207Y-101882676D02*
X153323826Y-101977914D01*
X153323826Y-101977914D02*
X153371445Y-102168390D01*
X153371445Y-102168390D02*
X153371445Y-102311247D01*
X153371445Y-102311247D02*
X153323826Y-102501723D01*
X153323826Y-102501723D02*
X153276207Y-102596961D01*
X153276207Y-102596961D02*
X153180969Y-102692200D01*
X153180969Y-102692200D02*
X153038112Y-102739819D01*
X153038112Y-102739819D02*
X152800017Y-102739819D01*
X154371445Y-102644580D02*
X154323826Y-102692200D01*
X154323826Y-102692200D02*
X154180969Y-102739819D01*
X154180969Y-102739819D02*
X154085731Y-102739819D01*
X154085731Y-102739819D02*
X153942874Y-102692200D01*
X153942874Y-102692200D02*
X153847636Y-102596961D01*
X153847636Y-102596961D02*
X153800017Y-102501723D01*
X153800017Y-102501723D02*
X153752398Y-102311247D01*
X153752398Y-102311247D02*
X153752398Y-102168390D01*
X153752398Y-102168390D02*
X153800017Y-101977914D01*
X153800017Y-101977914D02*
X153847636Y-101882676D01*
X153847636Y-101882676D02*
X153942874Y-101787438D01*
X153942874Y-101787438D02*
X154085731Y-101739819D01*
X154085731Y-101739819D02*
X154180969Y-101739819D01*
X154180969Y-101739819D02*
X154323826Y-101787438D01*
X154323826Y-101787438D02*
X154371445Y-101835057D01*
X155276207Y-102739819D02*
X154800017Y-102739819D01*
X154800017Y-102739819D02*
X154800017Y-101739819D01*
X155609541Y-102739819D02*
X155609541Y-101739819D01*
X156180969Y-102739819D02*
X155752398Y-102168390D01*
X156180969Y-101739819D02*
X155609541Y-102311247D01*
D11*
X154256265Y-89324800D02*
X154399122Y-89372419D01*
X154399122Y-89372419D02*
X154637217Y-89372419D01*
X154637217Y-89372419D02*
X154732455Y-89324800D01*
X154732455Y-89324800D02*
X154780074Y-89277180D01*
X154780074Y-89277180D02*
X154827693Y-89181942D01*
X154827693Y-89181942D02*
X154827693Y-89086704D01*
X154827693Y-89086704D02*
X154780074Y-88991466D01*
X154780074Y-88991466D02*
X154732455Y-88943847D01*
X154732455Y-88943847D02*
X154637217Y-88896228D01*
X154637217Y-88896228D02*
X154446741Y-88848609D01*
X154446741Y-88848609D02*
X154351503Y-88800990D01*
X154351503Y-88800990D02*
X154303884Y-88753371D01*
X154303884Y-88753371D02*
X154256265Y-88658133D01*
X154256265Y-88658133D02*
X154256265Y-88562895D01*
X154256265Y-88562895D02*
X154303884Y-88467657D01*
X154303884Y-88467657D02*
X154351503Y-88420038D01*
X154351503Y-88420038D02*
X154446741Y-88372419D01*
X154446741Y-88372419D02*
X154684836Y-88372419D01*
X154684836Y-88372419D02*
X154827693Y-88420038D01*
X155161027Y-88372419D02*
X155399122Y-89372419D01*
X155399122Y-89372419D02*
X155589598Y-88658133D01*
X155589598Y-88658133D02*
X155780074Y-89372419D01*
X155780074Y-89372419D02*
X156018170Y-88372419D01*
X156589598Y-88372419D02*
X156780074Y-88372419D01*
X156780074Y-88372419D02*
X156875312Y-88420038D01*
X156875312Y-88420038D02*
X156970550Y-88515276D01*
X156970550Y-88515276D02*
X157018169Y-88705752D01*
X157018169Y-88705752D02*
X157018169Y-89039085D01*
X157018169Y-89039085D02*
X156970550Y-89229561D01*
X156970550Y-89229561D02*
X156875312Y-89324800D01*
X156875312Y-89324800D02*
X156780074Y-89372419D01*
X156780074Y-89372419D02*
X156589598Y-89372419D01*
X156589598Y-89372419D02*
X156494360Y-89324800D01*
X156494360Y-89324800D02*
X156399122Y-89229561D01*
X156399122Y-89229561D02*
X156351503Y-89039085D01*
X156351503Y-89039085D02*
X156351503Y-88705752D01*
X156351503Y-88705752D02*
X156399122Y-88515276D01*
X156399122Y-88515276D02*
X156494360Y-88420038D01*
X156494360Y-88420038D02*
X156589598Y-88372419D01*
D10*
X155292588Y-95691438D02*
X155197350Y-95643819D01*
X155197350Y-95643819D02*
X155054493Y-95643819D01*
X155054493Y-95643819D02*
X154911636Y-95691438D01*
X154911636Y-95691438D02*
X154816398Y-95786676D01*
X154816398Y-95786676D02*
X154768779Y-95881914D01*
X154768779Y-95881914D02*
X154721160Y-96072390D01*
X154721160Y-96072390D02*
X154721160Y-96215247D01*
X154721160Y-96215247D02*
X154768779Y-96405723D01*
X154768779Y-96405723D02*
X154816398Y-96500961D01*
X154816398Y-96500961D02*
X154911636Y-96596200D01*
X154911636Y-96596200D02*
X155054493Y-96643819D01*
X155054493Y-96643819D02*
X155149731Y-96643819D01*
X155149731Y-96643819D02*
X155292588Y-96596200D01*
X155292588Y-96596200D02*
X155340207Y-96548580D01*
X155340207Y-96548580D02*
X155340207Y-96215247D01*
X155340207Y-96215247D02*
X155149731Y-96215247D01*
X155768779Y-96643819D02*
X155768779Y-95643819D01*
X155768779Y-95643819D02*
X156340207Y-96643819D01*
X156340207Y-96643819D02*
X156340207Y-95643819D01*
X156816398Y-96643819D02*
X156816398Y-95643819D01*
X156816398Y-95643819D02*
X157054493Y-95643819D01*
X157054493Y-95643819D02*
X157197350Y-95691438D01*
X157197350Y-95691438D02*
X157292588Y-95786676D01*
X157292588Y-95786676D02*
X157340207Y-95881914D01*
X157340207Y-95881914D02*
X157387826Y-96072390D01*
X157387826Y-96072390D02*
X157387826Y-96215247D01*
X157387826Y-96215247D02*
X157340207Y-96405723D01*
X157340207Y-96405723D02*
X157292588Y-96500961D01*
X157292588Y-96500961D02*
X157197350Y-96596200D01*
X157197350Y-96596200D02*
X157054493Y-96643819D01*
X157054493Y-96643819D02*
X156816398Y-96643819D01*
M02*
